<svg width="439" height="439" viewBox="0 0 439 439" fill="none" xmlns="http://www.w3.org/2000/svg">
<g clip-path="url(#clip0_59_22)" filter="url(#filter0_i_59_22)">
<path d="M357.181 87.7817C379.351 135.486 374.321 191.642 349.773 237.28C329.634 274.723 299.581 305.69 274.814 339.969C263.491 355.663 252.059 371.979 244.285 389.85C241.706 395.795 239.474 401.886 237.279 407.996C235.066 414.087 233.182 420.306 231.06 426.434C229.066 432.177 226.743 438.945 219.591 439H219.463C210.939 438.982 208.872 429.305 206.751 422.775C201.556 406.788 196.123 391.442 188.111 376.589C178.783 359.321 167.167 343.353 155.369 327.732L357.181 87.7817ZM156.302 140.937L83.8855 227.036C97.1287 255.205 117.195 279.405 136.401 303.495C140.919 309.166 145.437 314.873 149.882 320.616L241.048 212.238L240.517 212.421C208.671 223.414 173.003 207.098 160.18 176.076C158.426 171.865 157.144 167.472 156.357 162.979C155.205 154.985 154.949 149.059 156.284 141.065L156.302 140.937ZM100.458 57.6005L100.403 57.6736C64.789 102.781 58.6796 165.229 79.9711 218.092L167.497 114.03L166.436 113.116L100.458 57.6005ZM268.174 7.97517L197.971 91.44C198.132 91.3711 198.297 91.31 198.465 91.2571C227.731 81.1784 260.711 94.0009 275.655 120.999C278.875 126.834 281.564 133.493 282.551 140.114C283.795 148.272 284.106 154.254 282.771 162.43L282.716 162.723L352.883 79.2944C334.546 45.8508 304.403 20.4422 268.339 8.03005L268.174 7.97517ZM173.149 107.336L259.047 5.21313L258.187 4.99363C245.476 1.65258 232.386 -0.0259624 219.244 6.84429e-06C197.963 0.199327 176.954 4.79677 157.535 13.5036C138.116 22.2104 120.708 34.8385 106.403 50.5948L106.11 50.924L173.149 107.336Z" fill="#D6F8F7"/>
</g>
<defs>
<filter id="filter0_i_59_22" x="0" y="0" width="439" height="441" filterUnits="userSpaceOnUse" color-interpolation-filters="sRGB">
<feFlood flood-opacity="0" result="BackgroundImageFix"/>
<feBlend mode="normal" in="SourceGraphic" in2="BackgroundImageFix" result="shape"/>
<feColorMatrix in="SourceAlpha" type="matrix" values="0 0 0 0 0 0 0 0 0 0 0 0 0 0 0 0 0 0 127 0" result="hardAlpha"/>
<feOffset dy="2"/>
<feGaussianBlur stdDeviation="1"/>
<feComposite in2="hardAlpha" operator="arithmetic" k2="-1" k3="1"/>
<feColorMatrix type="matrix" values="0 0 0 0 0 0 0 0 0 0 0 0 0 0 0 0 0 0 0.25 0"/>
<feBlend mode="normal" in2="shape" result="effect1_innerShadow_59_22"/>
</filter>
<clipPath id="clip0_59_22">
<rect width="439" height="439" fill="white"/>
</clipPath>
</defs>
</svg>
