<svg width="324" height="324" viewBox="0 0 324 324" fill="none" xmlns="http://www.w3.org/2000/svg">
<g clip-path="url(#clip0_60_25)" filter="url(#filter0_i_60_25)">
<path fill-rule="evenodd" clip-rule="evenodd" d="M123.863 181.102L162.041 219.294L200.232 181.102C202.764 178.572 206.197 177.15 209.777 177.15C213.356 177.15 216.789 178.572 219.321 181.102L243.189 204.97C244.444 206.224 245.44 207.713 246.119 209.352C246.799 210.991 247.148 212.748 247.148 214.522C247.148 216.296 246.799 218.053 246.119 219.691C245.44 221.33 244.444 222.819 243.189 224.073L171.585 295.65C169.053 298.181 165.62 299.603 162.041 299.603C158.461 299.603 155.028 298.181 152.496 295.65L80.9055 224.046C78.3747 221.514 76.9529 218.081 76.9529 214.501C76.9529 210.922 78.3747 207.489 80.9055 204.957L104.76 181.089C106.014 179.834 107.503 178.838 109.142 178.159C110.78 177.479 112.537 177.13 114.311 177.13C116.085 177.13 117.842 177.479 119.481 178.159C121.12 178.838 122.609 179.834 123.863 181.089V181.102ZM209.777 209.749L171.585 247.927C169.053 250.458 165.62 251.88 162.041 251.88C158.461 251.88 155.028 250.458 152.496 247.927L114.318 209.749L109.539 214.515L162.054 267.03L214.542 214.515L209.777 209.749ZM271.782 128.574L295.65 152.442C298.181 154.974 299.603 158.407 299.603 161.986C299.603 165.566 298.181 168.999 295.65 171.531L271.782 195.399C269.25 197.93 265.817 199.352 262.238 199.352C258.658 199.352 255.225 197.93 252.693 195.399L228.825 171.531C226.294 168.999 224.872 165.566 224.872 161.986C224.872 158.407 226.294 154.974 228.825 152.442L252.693 128.574C255.225 126.043 258.658 124.621 262.238 124.621C265.817 124.621 269.25 126.043 271.782 128.574ZM170.276 127.453L171.558 128.574L195.426 152.442C197.75 154.767 199.147 157.859 199.353 161.14C199.559 164.421 198.561 167.665 196.547 170.262L195.426 171.531L171.558 195.399C169.242 197.711 166.166 199.104 162.9 199.317C159.635 199.531 156.403 198.551 153.806 196.56L152.456 195.399L128.601 171.531C126.277 169.206 124.88 166.114 124.674 162.833C124.468 159.552 125.466 156.308 127.481 153.711L128.601 152.442L152.469 128.574C154.794 126.25 157.886 124.853 161.167 124.647C164.448 124.441 167.692 125.439 170.289 127.453H170.276ZM61.83 124.659C64.7973 124.659 67.682 125.636 70.038 127.44L71.3745 128.601L95.229 152.469C97.5554 154.792 98.9542 157.884 99.163 161.165C99.3718 164.446 98.3762 167.69 96.363 170.289L95.229 171.558L71.3745 195.426C69.0499 197.75 65.9571 199.147 62.6762 199.353C59.3954 199.559 56.152 198.561 53.5545 196.546L52.272 195.426L28.4175 171.558C26.0912 169.235 24.6924 166.143 24.4836 162.862C24.2748 159.581 25.2704 156.337 27.2835 153.738L28.4175 152.469L52.245 128.601C53.501 127.348 54.9917 126.355 56.6317 125.679C58.2717 125.002 60.029 124.656 61.803 124.659H61.83ZM61.83 157.248L57.0375 162L61.8165 166.779L66.582 162L61.8165 157.234L61.83 157.248ZM262.251 157.207L257.486 161.986L262.251 166.752L267.03 161.986L262.251 157.207ZM162.027 157.207L157.248 161.986L162.027 166.752L166.793 161.986L162.027 157.207ZM171.572 28.3365L243.162 99.9405C245.693 102.472 247.115 105.905 247.115 109.485C247.115 113.065 245.693 116.498 243.162 119.029L219.294 142.897C216.762 145.428 213.329 146.85 209.75 146.85C206.17 146.85 202.737 145.428 200.205 142.897L162.027 104.706L123.836 142.897C121.304 145.428 117.871 146.85 114.291 146.85C110.711 146.85 107.278 145.428 104.747 142.897L80.865 119.016C78.3342 116.484 76.9124 113.051 76.9124 109.471C76.9124 105.892 78.3342 102.459 80.865 99.927L152.469 28.323C155.001 25.7921 158.434 24.3704 162.014 24.3704C165.593 24.3704 169.026 25.7921 171.558 28.323L171.572 28.3365ZM162 56.9835L109.485 109.485L114.264 114.25L152.456 76.0725C154.987 73.5416 158.42 72.1199 162 72.1199C165.58 72.1199 169.013 73.5416 171.545 76.0725L209.723 114.25L214.502 109.485L162 56.97V56.9835Z" fill="black"/>
</g>
<defs>
<filter id="filter0_i_60_25" x="0" y="0" width="324" height="328" filterUnits="userSpaceOnUse" color-interpolation-filters="sRGB">
<feFlood flood-opacity="0" result="BackgroundImageFix"/>
<feBlend mode="normal" in="SourceGraphic" in2="BackgroundImageFix" result="shape"/>
<feColorMatrix in="SourceAlpha" type="matrix" values="0 0 0 0 0 0 0 0 0 0 0 0 0 0 0 0 0 0 127 0" result="hardAlpha"/>
<feOffset dy="4"/>
<feGaussianBlur stdDeviation="2"/>
<feComposite in2="hardAlpha" operator="arithmetic" k2="-1" k3="1"/>
<feColorMatrix type="matrix" values="0 0 0 0 0 0 0 0 0 0 0 0 0 0 0 0 0 0 0.25 0"/>
<feBlend mode="normal" in2="shape" result="effect1_innerShadow_60_25"/>
</filter>
<clipPath id="clip0_60_25">
<rect width="324" height="324" fill="white"/>
</clipPath>
</defs>
</svg>
