<svg width="324" height="324" viewBox="0 0 324 324" fill="none" xmlns="http://www.w3.org/2000/svg">
<g clip-path="url(#clip0_88_30)" filter="url(#filter0_i_88_30)">
<path fill-rule="evenodd" clip-rule="evenodd" d="M123.862 181.102L162.04 219.294L200.232 181.102C202.763 178.572 206.197 177.15 209.776 177.15C213.356 177.15 216.789 178.572 219.321 181.102L243.189 204.97C244.444 206.224 245.44 207.713 246.119 209.352C246.798 210.991 247.148 212.748 247.148 214.522C247.148 216.296 246.798 218.053 246.119 219.691C245.44 221.33 244.444 222.819 243.189 224.073L171.585 295.65C169.053 298.181 165.62 299.603 162.04 299.603C158.461 299.603 155.027 298.181 152.496 295.65L80.9053 224.046C78.3744 221.514 76.9527 218.081 76.9527 214.501C76.9527 210.922 78.3744 207.489 80.9053 204.957L104.76 181.089C106.014 179.834 107.502 178.838 109.141 178.159C110.78 177.479 112.537 177.13 114.311 177.13C116.085 177.13 117.842 177.479 119.481 178.159C121.12 178.838 122.609 179.834 123.862 181.089V181.102ZM209.776 209.749L171.585 247.927C169.053 250.458 165.62 251.88 162.04 251.88C158.461 251.88 155.027 250.458 152.496 247.927L114.318 209.749L109.539 214.515L162.054 267.03L214.542 214.515L209.776 209.749ZM271.782 128.574L295.65 152.442C298.181 154.974 299.602 158.407 299.602 161.986C299.602 165.566 298.181 168.999 295.65 171.531L271.782 195.399C269.25 197.93 265.817 199.352 262.237 199.352C258.658 199.352 255.224 197.93 252.693 195.399L228.825 171.531C226.294 168.999 224.872 165.566 224.872 161.986C224.872 158.407 226.294 154.974 228.825 152.442L252.693 128.574C255.224 126.043 258.658 124.621 262.237 124.621C265.817 124.621 269.25 126.043 271.782 128.574ZM170.275 127.453L171.558 128.574L195.426 152.442C197.75 154.767 199.146 157.859 199.353 161.14C199.559 164.421 198.561 167.665 196.546 170.262L195.426 171.531L171.558 195.399C169.242 197.711 166.165 199.104 162.9 199.317C159.634 199.531 156.402 198.551 153.805 196.56L152.455 195.399L128.601 171.531C126.276 169.206 124.88 166.114 124.674 162.833C124.467 159.552 125.465 156.308 127.48 153.711L128.601 152.442L152.469 128.574C154.793 126.25 157.886 124.853 161.167 124.647C164.448 124.441 167.691 125.439 170.289 127.453H170.275ZM61.8298 124.659C64.7971 124.659 67.6818 125.636 70.0378 127.44L71.3743 128.601L95.2288 152.469C97.5552 154.792 98.954 157.884 99.1627 161.165C99.3715 164.446 98.3759 167.69 96.3628 170.289L95.2288 171.558L71.3743 195.426C69.0497 197.75 65.9568 199.147 62.676 199.353C59.3951 199.559 56.1517 198.561 53.5543 196.546L52.2718 195.426L28.4173 171.558C26.0909 169.235 24.6921 166.143 24.4833 162.862C24.2745 159.581 25.2701 156.337 27.2833 153.738L28.4173 152.469L52.2448 128.601C53.5008 127.348 54.9914 126.355 56.6315 125.679C58.2715 125.002 60.0288 124.656 61.8028 124.659H61.8298ZM61.8298 157.248L57.0373 162L61.8163 166.779L66.5818 162L61.8163 157.234L61.8298 157.248ZM262.251 157.207L257.485 161.986L262.251 166.752L267.03 161.986L262.251 157.207ZM162.027 157.207L157.248 161.986L162.027 166.752L166.792 161.986L162.027 157.207ZM171.571 28.3365L243.162 99.9405C245.693 102.472 247.114 105.905 247.114 109.485C247.114 113.065 245.693 116.498 243.162 119.029L219.294 142.897C216.762 145.428 213.329 146.85 209.749 146.85C206.17 146.85 202.736 145.428 200.205 142.897L162.027 104.706L123.835 142.897C121.304 145.428 117.87 146.85 114.291 146.85C110.711 146.85 107.278 145.428 104.746 142.897L80.8648 119.016C78.3339 116.484 76.9122 113.051 76.9122 109.471C76.9122 105.892 78.3339 102.459 80.8648 99.927L152.469 28.323C155 25.7921 158.434 24.3704 162.013 24.3704C165.593 24.3704 169.026 25.7921 171.558 28.323L171.571 28.3365ZM162 56.9835L109.485 109.485L114.264 114.25L152.455 76.0725C154.987 73.5416 158.42 72.1199 162 72.1199C165.58 72.1199 169.013 73.5416 171.544 76.0725L209.722 114.25L214.501 109.485L162 56.97V56.9835Z" fill="#CBF5F1"/>
</g>
<defs>
<filter id="filter0_i_88_30" x="0" y="0" width="324" height="328" filterUnits="userSpaceOnUse" color-interpolation-filters="sRGB">
<feFlood flood-opacity="0" result="BackgroundImageFix"/>
<feBlend mode="normal" in="SourceGraphic" in2="BackgroundImageFix" result="shape"/>
<feColorMatrix in="SourceAlpha" type="matrix" values="0 0 0 0 0 0 0 0 0 0 0 0 0 0 0 0 0 0 127 0" result="hardAlpha"/>
<feOffset dy="4"/>
<feGaussianBlur stdDeviation="2"/>
<feComposite in2="hardAlpha" operator="arithmetic" k2="-1" k3="1"/>
<feColorMatrix type="matrix" values="0 0 0 0 0 0 0 0 0 0 0 0 0 0 0 0 0 0 0.25 0"/>
<feBlend mode="normal" in2="shape" result="effect1_innerShadow_88_30"/>
</filter>
<clipPath id="clip0_88_30">
<rect width="324" height="324" fill="white"/>
</clipPath>
</defs>
</svg>
