<svg width="329" height="329" viewBox="0 0 329 329" fill="none" xmlns="http://www.w3.org/2000/svg">
<g clip-path="url(#clip0_60_30)" filter="url(#filter0_i_60_30)">
<path d="M0 10.2812C0 7.55449 1.0832 4.93942 3.01131 3.01131C4.93942 1.0832 7.55449 0 10.2812 0L71.9688 0C74.6955 0 77.3106 1.0832 79.2387 3.01131C81.1668 4.93942 82.25 7.55449 82.25 10.2812C82.25 13.008 81.1668 15.6231 79.2387 17.5512C77.3106 19.4793 74.6955 20.5625 71.9688 20.5625H20.5625V71.9688C20.5625 74.6955 19.4793 77.3106 17.5512 79.2387C15.6231 81.1668 13.008 82.25 10.2812 82.25C7.55449 82.25 4.93942 81.1668 3.01131 79.2387C1.0832 77.3106 0 74.6955 0 71.9688V10.2812ZM246.75 10.2812C246.75 7.55449 247.833 4.93942 249.761 3.01131C251.689 1.0832 254.304 0 257.031 0L318.719 0C321.446 0 324.061 1.0832 325.989 3.01131C327.917 4.93942 329 7.55449 329 10.2812V71.9688C329 74.6955 327.917 77.3106 325.989 79.2387C324.061 81.1668 321.446 82.25 318.719 82.25C315.992 82.25 313.377 81.1668 311.449 79.2387C309.521 77.3106 308.438 74.6955 308.438 71.9688V20.5625H257.031C254.304 20.5625 251.689 19.4793 249.761 17.5512C247.833 15.6231 246.75 13.008 246.75 10.2812ZM10.2812 246.75C13.008 246.75 15.6231 247.833 17.5512 249.761C19.4793 251.689 20.5625 254.304 20.5625 257.031V308.438H71.9688C74.6955 308.438 77.3106 309.521 79.2387 311.449C81.1668 313.377 82.25 315.992 82.25 318.719C82.25 321.446 81.1668 324.061 79.2387 325.989C77.3106 327.917 74.6955 329 71.9688 329H10.2812C7.55449 329 4.93942 327.917 3.01131 325.989C1.0832 324.061 0 321.446 0 318.719V257.031C0 254.304 1.0832 251.689 3.01131 249.761C4.93942 247.833 7.55449 246.75 10.2812 246.75ZM318.719 246.75C321.446 246.75 324.061 247.833 325.989 249.761C327.917 251.689 329 254.304 329 257.031V318.719C329 321.446 327.917 324.061 325.989 325.989C324.061 327.917 321.446 329 318.719 329H257.031C254.304 329 251.689 327.917 249.761 325.989C247.833 324.061 246.75 321.446 246.75 318.719C246.75 315.992 247.833 313.377 249.761 311.449C251.689 309.521 254.304 308.438 257.031 308.438H308.438V257.031C308.438 254.304 309.521 251.689 311.449 249.761C313.377 247.833 315.992 246.75 318.719 246.75ZM82.25 82.25H102.812V102.812H82.25V82.25Z" fill="black"/>
<path d="M143.938 41.125H41.125V143.938H143.938V41.125ZM61.6875 61.6875H123.375V123.375H61.6875V61.6875ZM102.812 226.188H82.25V246.75H102.812V226.188Z" fill="black"/>
<path d="M143.938 185.062H41.125V287.875H143.938V185.062ZM61.6875 205.625H123.375V267.312H61.6875V205.625ZM226.188 82.25H246.75V102.812H226.188V82.25Z" fill="black"/>
<path d="M185.062 41.125H287.875V143.938H185.062V41.125ZM205.625 61.6875V123.375H267.312V61.6875H205.625ZM164.5 164.5V205.625H185.062V226.188H164.5V246.75H205.625V205.625H226.188V246.75H246.75V226.188H287.875V205.625H226.188V164.5H164.5ZM205.625 205.625H185.062V185.062H205.625V205.625ZM287.875 246.75H267.312V267.312H226.188V287.875H287.875V246.75ZM205.625 287.875V267.312H164.5V287.875H205.625Z" fill="black"/>
<path d="M246.75 185.062H287.875V164.5H246.75V185.062Z" fill="black"/>
</g>
<defs>
<filter id="filter0_i_60_30" x="0" y="0" width="329" height="333" filterUnits="userSpaceOnUse" color-interpolation-filters="sRGB">
<feFlood flood-opacity="0" result="BackgroundImageFix"/>
<feBlend mode="normal" in="SourceGraphic" in2="BackgroundImageFix" result="shape"/>
<feColorMatrix in="SourceAlpha" type="matrix" values="0 0 0 0 0 0 0 0 0 0 0 0 0 0 0 0 0 0 127 0" result="hardAlpha"/>
<feOffset dy="4"/>
<feGaussianBlur stdDeviation="2"/>
<feComposite in2="hardAlpha" operator="arithmetic" k2="-1" k3="1"/>
<feColorMatrix type="matrix" values="0 0 0 0 0 0 0 0 0 0 0 0 0 0 0 0 0 0 0.25 0"/>
<feBlend mode="normal" in2="shape" result="effect1_innerShadow_60_30"/>
</filter>
<clipPath id="clip0_60_30">
<rect width="329" height="329" fill="white"/>
</clipPath>
</defs>
</svg>
