<svg width="329" height="329" viewBox="0 0 329 329" fill="none" xmlns="http://www.w3.org/2000/svg">
<g clip-path="url(#clip0_63_45)" filter="url(#filter0_i_63_45)">
<path d="M311.085 0H18.0436C8.32783 0 0.359863 7.94227 0.359863 17.6838V310.725C0.359863 320.467 8.32783 328.409 18.0436 328.409H311.085C320.801 328.409 328.769 320.467 328.769 310.725V17.6838C328.769 7.94227 320.801 0 311.085 0Z" fill="#D6F8F7"/>
<path d="M232.536 83.6636H173.599C156.404 83.6636 142.087 95.9754 138.951 112.245L130.495 143.475L103.584 164.706C98.4944 168.767 97.6205 176.169 101.682 181.258C105.743 186.348 113.145 187.221 118.234 183.16L148.333 159.385L148.307 159.359C150.202 157.808 151.567 155.706 152.214 153.345L159.154 127.667C159.873 124.994 162.444 123.015 165.014 122.912C167.584 123.015 169.975 125.097 169.975 127.667V304.068C169.975 311.573 176.066 317.639 183.546 317.639C191.051 317.639 197.117 311.547 197.117 304.068V199.97C197.117 197.091 199.431 194.778 202.309 194.778C205.188 194.778 207.501 197.091 207.501 199.97V304.068C207.501 311.573 213.593 317.639 221.073 317.639C228.578 317.639 234.644 311.547 234.644 304.068V127.719C234.644 125.097 236.777 122.964 239.399 122.964C242.021 122.964 244.154 125.097 244.154 127.719V186.81C244.154 193.313 249.423 198.608 255.952 198.608C262.48 198.608 267.749 193.339 267.749 186.81V118.954C267.827 99.471 252.019 83.6636 232.536 83.6636ZM202.361 75.1301C220.224 75.1301 234.721 60.6336 234.721 42.7699C234.721 24.9062 220.25 10.4097 202.361 10.4097C184.471 10.4097 170.026 24.9062 170.026 42.7699C170.026 60.6336 184.497 75.1301 202.361 75.1301Z" fill="white"/>
<path d="M135.07 317.973H81.0163C77.8291 317.973 75.1045 315.634 74.6676 312.473L61.3791 219.813C60.865 216.292 63.3068 213.053 66.8281 212.539C70.3752 212.025 73.5881 214.467 74.1021 217.988L86.6195 305.147H129.518L142.035 217.988C142.152 217.151 142.433 216.346 142.862 215.618C143.292 214.89 143.861 214.255 144.537 213.748C145.214 213.242 145.983 212.874 146.802 212.667C147.622 212.459 148.474 212.416 149.309 212.539C152.831 213.053 155.273 216.292 154.759 219.813L141.47 312.473C141.234 314.002 140.46 315.397 139.286 316.405C138.113 317.414 136.617 317.97 135.07 317.973Z" fill="white"/>
<path d="M125.868 227.19L107.105 232.048C105.306 232.511 103.378 231.971 102.067 230.66L87.8276 216.163C85.0002 213.285 86.3368 208.427 90.2437 207.424L109.007 202.566C110.806 202.104 112.734 202.644 114.045 203.954L128.284 218.451C131.112 221.33 129.775 226.188 125.868 227.19Z" fill="white"/>
</g>
<defs>
<filter id="filter0_i_63_45" x="0" y="0" width="329" height="333" filterUnits="userSpaceOnUse" color-interpolation-filters="sRGB">
<feFlood flood-opacity="0" result="BackgroundImageFix"/>
<feBlend mode="normal" in="SourceGraphic" in2="BackgroundImageFix" result="shape"/>
<feColorMatrix in="SourceAlpha" type="matrix" values="0 0 0 0 0 0 0 0 0 0 0 0 0 0 0 0 0 0 127 0" result="hardAlpha"/>
<feOffset dy="4"/>
<feGaussianBlur stdDeviation="2"/>
<feComposite in2="hardAlpha" operator="arithmetic" k2="-1" k3="1"/>
<feColorMatrix type="matrix" values="0 0 0 0 0 0 0 0 0 0 0 0 0 0 0 0 0 0 0.25 0"/>
<feBlend mode="normal" in2="shape" result="effect1_innerShadow_63_45"/>
</filter>
<clipPath id="clip0_63_45">
<rect width="329" height="329" fill="white"/>
</clipPath>
</defs>
</svg>
