<svg width="360" height="360" viewBox="0 0 360 360" fill="none" xmlns="http://www.w3.org/2000/svg">
<g filter="url(#filter0_i_60_38)">
<path d="M33.3984 73.1249H303.75V36.2249C303.75 34.5603 303.381 32.9163 302.669 31.4117C301.957 29.907 300.919 28.5791 299.632 27.5238C298.345 26.4685 296.839 25.712 295.224 25.3089C293.609 24.9058 291.924 24.8662 290.292 25.1929L31.5422 67.7179C29.6155 68.1014 27.8227 68.9828 26.3425 70.2744C24.8622 71.566 23.7459 73.2226 23.1047 75.0796C26.3818 73.784 29.8746 73.1207 33.3984 73.1249ZM325.898 89.9999H33.3984C30.4148 89.9999 27.5533 91.1852 25.4435 93.295C23.3337 95.4048 22.1484 98.2662 22.1484 101.25V303.75C22.1484 306.734 23.3337 309.595 25.4435 311.705C27.5533 313.815 30.4148 315 33.3984 315H325.898C328.882 315 331.744 313.815 333.853 311.705C335.963 309.595 337.148 306.734 337.148 303.75V101.25C337.148 98.2662 335.963 95.4048 333.853 93.295C331.744 91.1852 328.882 89.9999 325.898 89.9999ZM258.75 225C254.3 225 249.95 223.68 246.25 221.208C242.55 218.736 239.666 215.222 237.963 211.11C236.26 206.999 235.814 202.475 236.682 198.11C237.55 193.746 239.693 189.737 242.84 186.59C245.987 183.443 249.996 181.3 254.36 180.432C258.725 179.564 263.249 180.01 267.36 181.713C271.472 183.416 274.986 186.299 277.458 190C279.93 193.7 281.25 198.05 281.25 202.5C281.25 208.467 278.879 214.19 274.66 218.41C270.44 222.629 264.717 225 258.75 225Z" fill="black"/>
<path d="M22.0289 182.461V81.5625C22.0289 72.893 26.0508 68.5687 32.8711 67.5C57.6211 63.6117 109.216 61.5234 109.216 61.5234C109.216 61.5234 103.359 72.7734 90 72.7734V90C103.008 90 112.029 106.523 112.029 106.523L59.6461 165.938L22.0289 182.461Z" fill="black"/>
</g>
<defs>
<filter id="filter0_i_60_38" x="0" y="0" width="360" height="364" filterUnits="userSpaceOnUse" color-interpolation-filters="sRGB">
<feFlood flood-opacity="0" result="BackgroundImageFix"/>
<feBlend mode="normal" in="SourceGraphic" in2="BackgroundImageFix" result="shape"/>
<feColorMatrix in="SourceAlpha" type="matrix" values="0 0 0 0 0 0 0 0 0 0 0 0 0 0 0 0 0 0 127 0" result="hardAlpha"/>
<feOffset dy="4"/>
<feGaussianBlur stdDeviation="2"/>
<feComposite in2="hardAlpha" operator="arithmetic" k2="-1" k3="1"/>
<feColorMatrix type="matrix" values="0 0 0 0 0 0 0 0 0 0 0 0 0 0 0 0 0 0 0.25 0"/>
<feBlend mode="normal" in2="shape" result="effect1_innerShadow_60_38"/>
</filter>
</defs>
</svg>
